<?xml version="1.0" encoding="UTF-8" standalone="no"?>
<svg
   xmlns:dc="http://purl.org/dc/elements/1.1/"
   xmlns:cc="http://creativecommons.org/ns#"
   xmlns:rdf="http://www.w3.org/1999/02/22-rdf-syntax-ns#"
   xmlns:svg="http://www.w3.org/2000/svg"
   xmlns="http://www.w3.org/2000/svg"
   xmlns:sodipodi="http://sodipodi.sourceforge.net/DTD/sodipodi-0.dtd"
   xmlns:inkscape="http://www.inkscape.org/namespaces/inkscape"
   version="1.1"
   xml:space="preserve"
   enable-background="new 0 0 64 64"
   y="0px"
   x="0px"
   viewBox="0 0 232.38802 140"
   id="svg3714"
   sodipodi:docname="states-new.svg"
   inkscape:version="0.92.1 r15371"
   width="232.38802"
   height="140"><metadata
     id="metadata3720"><rdf:RDF><cc:Work
         rdf:about=""><dc:format>image/svg+xml</dc:format><dc:type
           rdf:resource="http://purl.org/dc/dcmitype/StillImage" /><dc:title></dc:title><dc:creator><cc:Agent><dc:title>Jan-Christoph Borchardt</dc:title></cc:Agent></dc:creator><cc:license
           rdf:resource="http://creativecommons.org/licenses/by-sa/4.0/" /></cc:Work><cc:License
         rdf:about="http://creativecommons.org/licenses/by-sa/4.0/"><cc:permits
           rdf:resource="http://creativecommons.org/ns#Reproduction" /><cc:permits
           rdf:resource="http://creativecommons.org/ns#Distribution" /><cc:requires
           rdf:resource="http://creativecommons.org/ns#Notice" /><cc:requires
           rdf:resource="http://creativecommons.org/ns#Attribution" /><cc:permits
           rdf:resource="http://creativecommons.org/ns#DerivativeWorks" /><cc:requires
           rdf:resource="http://creativecommons.org/ns#ShareAlike" /></cc:License></rdf:RDF></metadata><defs
     id="defs3718" /><sodipodi:namedview
     pagecolor="#ffffff"
     bordercolor="#666666"
     borderopacity="0.50196078"
     objecttolerance="10"
     gridtolerance="10"
     guidetolerance="10"
     inkscape:pageopacity="1"
     inkscape:pageshadow="2"
     inkscape:window-width="1920"
     inkscape:window-height="1046"
     id="namedview3716"
     showgrid="false"
     inkscape:zoom="2.8284272"
     inkscape:cx="78.381944"
     inkscape:cy="66.099195"
     inkscape:window-x="0"
     inkscape:window-y="34"
     inkscape:window-maximized="1"
     inkscape:current-layer="svg3714"
     fit-margin-top="0"
     fit-margin-left="0"
     fit-margin-right="2"
     fit-margin-bottom="0"
     inkscape:showpageshadow="false" /><rect
     style="fill:#000000;fill-opacity:1;stroke:none;stroke-width:1.68702996;stroke-linecap:round;stroke-miterlimit:4;stroke-dasharray:none;stroke-opacity:1"
     id="rect1061"
     width="20"
     height="140"
     x="0"
     y="0"
     inkscape:export-filename="states-new-logo.png"
     inkscape:export-xdpi="96"
     inkscape:export-ydpi="96" /><circle
     r="8"
     style="fill:#5eb220;fill-opacity:1;stroke-width:0.94738883"
     cy="10"
     cx="62"
     id="circle851"
     inkscape:export-filename="states-new.png"
     inkscape:export-xdpi="96"
     inkscape:export-ydpi="96" /><circle
     r="8"
     style="fill:#d40000;fill-opacity:1;stroke-width:0.94738883"
     cy="130"
     cx="62"
     id="circle855"
     inkscape:export-filename="states-new.png"
     inkscape:export-xdpi="96"
     inkscape:export-ydpi="96" /><circle
     r="8"
     style="fill:#e0d92d;fill-opacity:1;stroke-width:0.94738883"
     cy="110"
     cx="62"
     id="circle859"
     inkscape:export-filename="states-new.png"
     inkscape:export-xdpi="96"
     inkscape:export-ydpi="96" /><circle
     r="8"
     style="fill:#868686;fill-opacity:1;stroke-width:0.94738883"
     cy="90"
     cx="62"
     id="circle871"
     inkscape:export-filename="states-new.png"
     inkscape:export-xdpi="96"
     inkscape:export-ydpi="96" /><circle
     r="8"
     style="fill:#868686;fill-opacity:1;stroke-width:0.94738883"
     cy="50"
     cx="62"
     id="circle875"
     inkscape:export-filename="states-new.png"
     inkscape:export-xdpi="96"
     inkscape:export-ydpi="96" /><path
     style="fill:none;stroke:#faffff;stroke-width:1.99995995;stroke-linecap:round;stroke-linejoin:round;stroke-miterlimit:4;stroke-dasharray:none;stroke-opacity:1"
     d="M 57.01008,10.4744 60.535547,14.000061 67.061,7.474"
     id="path883"
     inkscape:connector-curvature="0"
     sodipodi:nodetypes="ccc"
     inkscape:export-filename="states-new.png"
     inkscape:export-xdpi="96"
     inkscape:export-ydpi="96" /><path
     style="fill:none;stroke:#ffffff;stroke-width:1.99999964;stroke-linecap:round;stroke-linejoin:round;stroke-miterlimit:4;stroke-dasharray:none;stroke-opacity:1"
     d="m 58.47458,126.47442 7.05117,7.05116"
     id="path887"
     inkscape:connector-curvature="0"
     inkscape:export-filename="states-new.png"
     inkscape:export-xdpi="96"
     inkscape:export-ydpi="96" /><path
     inkscape:connector-curvature="0"
     id="path889"
     d="m 65.52574,126.47441 -7.05116,7.05117"
     style="fill:none;stroke:#ffffff;stroke-width:1.99999964;stroke-linecap:round;stroke-linejoin:round;stroke-miterlimit:4;stroke-dasharray:none;stroke-opacity:1"
     inkscape:export-filename="states-new.png"
     inkscape:export-xdpi="96"
     inkscape:export-ydpi="96" /><path
     style="fill:none;stroke:#ffffff;stroke-width:1.99999964;stroke-linecap:round;stroke-linejoin:round;stroke-miterlimit:4;stroke-dasharray:none;stroke-opacity:1"
     d="m 60.00016,46.014 v 7.972"
     id="path903"
     inkscape:connector-curvature="0"
     sodipodi:nodetypes="cc"
     inkscape:export-filename="states-new.png"
     inkscape:export-xdpi="96"
     inkscape:export-ydpi="96" /><path
     inkscape:connector-curvature="0"
     id="path917"
     d="m 64.00016,46.014 v 7.972"
     style="fill:none;stroke:#ffffff;stroke-width:1.99999964;stroke-linecap:round;stroke-linejoin:round;stroke-miterlimit:4;stroke-dasharray:none;stroke-opacity:1"
     sodipodi:nodetypes="cc"
     inkscape:export-filename="states-new.png"
     inkscape:export-xdpi="96"
     inkscape:export-ydpi="96" /><path
     style="fill:none;stroke:#ffffff;stroke-width:1.99999964;stroke-linecap:round;stroke-linejoin:round;stroke-miterlimit:4;stroke-dasharray:none;stroke-opacity:1"
     d="M 62.00016,106.01372 V 110.986"
     id="path946"
     inkscape:connector-curvature="0"
     sodipodi:nodetypes="cc"
     inkscape:export-filename="states-new.png"
     inkscape:export-xdpi="96"
     inkscape:export-ydpi="96" /><circle
     style="fill:#fcffff;fill-opacity:1;stroke:none;stroke-width:1.91438997;stroke-linecap:round;stroke-linejoin:round;stroke-miterlimit:4;stroke-dasharray:none;stroke-opacity:1"
     id="circle1000"
     cx="61.975998"
     cy="114.031"
     r="1.25"
     inkscape:export-filename="states-new.png"
     inkscape:export-xdpi="96"
     inkscape:export-ydpi="96" /><circle
     r="1.25"
     cy="90"
     cx="62"
     id="circle1056"
     style="fill:#fcffff;fill-opacity:1;stroke:none;stroke-width:1.91438997;stroke-linecap:round;stroke-linejoin:round;stroke-miterlimit:4;stroke-dasharray:none;stroke-opacity:1"
     inkscape:export-filename="states-new.png"
     inkscape:export-xdpi="96"
     inkscape:export-ydpi="96" /><circle
     style="fill:#fcffff;fill-opacity:1;stroke:none;stroke-width:1.91438997;stroke-linecap:round;stroke-linejoin:round;stroke-miterlimit:4;stroke-dasharray:none;stroke-opacity:1"
     id="circle1102"
     cx="58"
     cy="90"
     r="1.25"
     inkscape:export-filename="states-new.png"
     inkscape:export-xdpi="96"
     inkscape:export-ydpi="96" /><circle
     style="fill:#fcffff;fill-opacity:1;stroke:none;stroke-width:1.91438997;stroke-linecap:round;stroke-linejoin:round;stroke-miterlimit:4;stroke-dasharray:none;stroke-opacity:1"
     id="circle1113"
     cx="66"
     cy="90"
     r="1.25"
     inkscape:export-filename="states-new.png"
     inkscape:export-xdpi="96"
     inkscape:export-ydpi="96" /><circle
     id="circle899"
     cx="62"
     cy="30"
     style="fill:#2268ab;fill-opacity:1;stroke-width:0.94738883"
     r="8"
     inkscape:export-filename="states-new.png"
     inkscape:export-xdpi="96"
     inkscape:export-ydpi="96" /><path
     id="path901"
     style="fill:none;fill-opacity:1;stroke:#ffffff;stroke-width:1.66666663;stroke-linecap:round;stroke-linejoin:round;stroke-miterlimit:4;stroke-dasharray:none;stroke-opacity:1"
     sodipodi:type="arc"
     sodipodi:cx="62"
     sodipodi:cy="30"
     sodipodi:rx="4.1666665"
     sodipodi:ry="4.1666665"
     sodipodi:start="0.52359878"
     sodipodi:end="2.6179939"
     d="M 65.608439,32.083333 A 4.1666665,4.1666665 0 0 1 62,34.166667 4.1666665,4.1666665 0 0 1 58.391561,32.083333"
     sodipodi:open="true"
     inkscape:export-filename="states-new.png"
     inkscape:export-xdpi="96"
     inkscape:export-ydpi="96" /><path
     transform="scale(-1)"
     style="fill:none;fill-opacity:1;stroke:#ffffff;stroke-width:1.66666663;stroke-linecap:round;stroke-linejoin:round;stroke-miterlimit:4;stroke-dasharray:none;stroke-opacity:1"
     id="path904"
     sodipodi:type="arc"
     sodipodi:cx="-62"
     sodipodi:cy="-30"
     sodipodi:rx="4.1666665"
     sodipodi:ry="4.1666665"
     sodipodi:start="0.52359878"
     sodipodi:end="2.6179939"
     d="M -58.391561,-27.916667 A 4.1666665,4.1666665 0 0 1 -62,-25.833333 a 4.1666665,4.1666665 0 0 1 -3.608439,-2.083334"
     sodipodi:open="true"
     inkscape:export-filename="states-new.png"
     inkscape:export-xdpi="96"
     inkscape:export-ydpi="96" /><path
     sodipodi:nodetypes="ccc"
     inkscape:connector-curvature="0"
     id="path906"
     d="m 59.423182,30.999287 -1.985702,-1.38e-4 4.3e-4,1.986629"
     style="fill:none;stroke:#faffff;stroke-width:1.99995995;stroke-linecap:round;stroke-linejoin:round;stroke-miterlimit:4;stroke-dasharray:none;stroke-opacity:1"
     inkscape:export-filename="states-new.png"
     inkscape:export-xdpi="96"
     inkscape:export-ydpi="96" /><path
     style="fill:none;stroke:#faffff;stroke-width:1.99995995;stroke-linecap:round;stroke-linejoin:round;stroke-miterlimit:4;stroke-dasharray:none;stroke-opacity:1"
     d="m 64.639222,28.999882 1.985702,1.38e-4 -4.3e-4,-1.986629"
     id="path908"
     inkscape:connector-curvature="0"
     sodipodi:nodetypes="ccc"
     inkscape:export-filename="states-new.png"
     inkscape:export-xdpi="96"
     inkscape:export-ydpi="96" /><path
     style="fill:#000000;fill-opacity:1;stroke-width:0.94738883"
     d="m 36,2 a 8,8 0 0 0 -8,8 8,8 0 0 0 8,8 8,8 0 0 0 8,-8 8,8 0 0 0 -8,-8 z m 5.041016,4.4648438 a 1.00008,1.00008 0 0 1 0.726562,1.7167968 l -6.52539,6.5253904 a 1.00008,1.00008 0 0 1 -1.414063,0 l -3.525391,-3.52539 a 1.00008,1.00008 0 1 1 1.414063,-1.4140629 l 2.818359,2.8183599 5.81836,-5.8183599 a 1.00008,1.00008 0 0 1 0.6875,-0.3027343 z"
     id="circle949"
     inkscape:connector-curvature="0" /><path
     style="fill:#000000;fill-opacity:1;stroke-width:0.94738883"
     d="m 36,122 a 8,8 0 0 0 -8,8 8,8 0 0 0 8,8 8,8 0 0 0 8,-8 8,8 0 0 0 -8,-8 z m -3.535156,3.46484 a 1.0000998,1.0000998 0 0 1 0.716797,0.30274 L 36,128.58594 l 2.818359,-2.81836 a 1.0000998,1.0000998 0 0 1 0.6875,-0.30274 1.0000998,1.0000998 0 0 1 0.726563,1.7168 L 37.414062,130 l 2.81836,2.81836 a 1.0000998,1.0000998 0 1 1 -1.414063,1.41406 L 36,131.41406 l -2.818359,2.81836 a 1.0000998,1.0000998 0 1 1 -1.414063,-1.41406 L 34.585938,130 l -2.81836,-2.81836 a 1.0000998,1.0000998 0 0 1 0.697266,-1.7168 z"
     id="circle951"
     inkscape:connector-curvature="0" /><path
     style="fill:#000000;fill-opacity:1;stroke-width:0.94738883"
     d="m 36,102 a 8,8 0 0 0 -8,8 8,8 0 0 0 8,8 8,8 0 0 0 8,-8 8,8 0 0 0 -8,-8 z m -0.01563,3 A 1.0000998,1.0000998 0 0 1 37,106.01367 v 4.97266 a 1.0000998,1.0000998 0 1 1 -2,0 v -4.97266 A 1.0000998,1.0000998 0 0 1 35.984375,105 Z m -0.0078,7.78125 a 1.25,1.25 0 0 1 1.25,1.25 1.25,1.25 0 0 1 -1.25,1.25 1.25,1.25 0 0 1 -1.25,-1.25 1.25,1.25 0 0 1 1.25,-1.25 z"
     id="circle953"
     inkscape:connector-curvature="0" /><path
     style="fill:#000000;fill-opacity:1;stroke-width:0.94738883"
     d="m 36,62 a 8,8 0 0 0 -8,8 8,8 0 0 0 8,8 8,8 0 0 0 8,-8 8,8 0 0 0 -8,-8 z m 0.01172,4.601562 c 1.554,0 2.859531,1.060329 3.269531,2.486329 0.355,-0.756 1.114047,-1.291016 1.998047,-1.291016 1.223797,0.0055 2.213274,0.996906 2.21875,2.220703 -0.0055,1.223797 -0.994953,2.215227 -2.21875,2.220703 -0.885,0 -1.643,-0.537969 -2,-1.292969 -0.408,1.427001 -1.713578,2.486329 -3.267578,2.486329 -1.563,0 -2.878297,-1.069766 -3.279297,-2.509766 -0.355001,0.79549 -1.140636,1.309734 -2.011719,1.316406 -1.223797,-0.0055 -2.215227,-0.996906 -2.220703,-2.220703 0.0044,-1.224578 0.99613,-2.215219 2.220703,-2.220703 0.896,0 1.665625,0.546406 2.015625,1.316406 0.4,-1.44 1.712391,-2.509765 3.275391,-2.509765 z m 0,1.304688 c -1.174,0 -2.109328,0.936375 -2.111328,2.109375 -0.0067,1.16919 0.942138,2.119981 2.111328,2.113281 1.167622,0.0056 2.114948,-0.943706 2.109375,-2.111328 0,-1.175 -0.936375,-2.111328 -2.109375,-2.111328 z m -5.291016,1.193359 c -0.508711,-0.0045 -0.922475,0.408998 -0.917969,0.917969 0,0.514 0.404922,0.916016 0.919922,0.916016 0.507821,0.0051 0.919694,-0.408201 0.914063,-0.916016 0.0062,-0.508091 -0.406208,-0.921952 -0.914063,-0.917969 z m 10.556641,0 c -0.508711,-0.0045 -0.922475,0.408998 -0.917969,0.917969 0,0.514 0.404922,0.916016 0.919922,0.916016 0.508367,0.0056 0.921092,-0.407643 0.916015,-0.916016 0.0056,-0.508648 -0.407616,-0.922503 -0.916015,-0.917969 z"
     id="circle959"
     inkscape:connector-curvature="0" /><path
     style="fill:#000000;fill-opacity:1;stroke-width:0.94738883"
     d="m 36,42 a 8,8 0 0 0 -8,8 8,8 0 0 0 8,8 8,8 0 0 0 8,-8 8,8 0 0 0 -8,-8 z m -2.015625,3 A 1.0000998,1.0000998 0 0 1 35,46.013672 v 7.972656 a 1.0000998,1.0000998 0 1 1 -2,0 V 46.013672 A 1.0000998,1.0000998 0 0 1 33.984375,45 Z m 4,0 A 1.0000998,1.0000998 0 0 1 39,46.013672 v 7.972656 a 1.0000998,1.0000998 0 1 1 -2,0 V 46.013672 A 1.0000998,1.0000998 0 0 1 37.984375,45 Z"
     id="circle961"
     inkscape:connector-curvature="0" /><path
     style="fill:#000000;fill-opacity:1;stroke-width:0.94738883"
     d="m 36,22 a 8,8 0 0 0 -8,8 8,8 0 0 0 8,8 8,8 0 0 0 8,-8 8,8 0 0 0 -8,-8 z m 0,3 c 1.422994,0 2.754717,0.613435 3.691406,1.642578 A 1.00008,1.00008 0 0 1 40.609375,26 1.00008,1.00008 0 0 1 41.625,27.013672 V 29 a 1.00008,1.00008 0 0 1 -1,1 h -1.986328 a 1.00008,1.00008 0 1 1 0,-2 h 0.02344 C 38.037213,27.167849 37.056525,26.666016 36,26.666016 c -1.192221,0 -2.290608,0.635475 -2.886719,1.667968 A 0.83348883,0.83348883 0 1 1 31.669922,27.5 C 32.562418,25.954152 34.215008,25 36,25 Z m -4.5625,5 h 1.986328 a 1.00008,1.00008 0 1 1 0,2 h -0.08594 c 0.624896,0.832151 1.605584,1.333984 2.662109,1.333984 1.192221,0 2.290608,-0.635475 2.886719,-1.667968 A 0.83349013,0.83349013 0 1 1 40.330078,32.5 C 39.437582,34.045848 37.784992,35 36,35 34.598193,35 33.28408,34.405675 32.349609,33.404297 A 1.00008,1.00008 0 0 1 30.4375,32.986328 V 31 a 1.00008,1.00008 0 0 1 1,-1 z"
     id="circle995"
     inkscape:connector-curvature="0" /><circle
     inkscape:export-ydpi="96"
     inkscape:export-xdpi="96"
     inkscape:export-filename="states-new.png"
     id="circle4548"
     cx="62"
     cy="70"
     style="fill:#868686;fill-opacity:1;stroke-width:0.94738883"
     r="8" /><path
     sodipodi:nodetypes="ccccccscccccccscccscccccccccccc"
     id="path4556"
     d="m 62.012,66.601406 c 1.554,0 2.86,1.06 3.27,2.486 0.355,-0.756 1.113,-1.29 1.997,-1.29 1.223797,0.0055 2.214524,0.996203 2.22,2.22 -0.0055,1.223797 -0.996203,2.214524 -2.22,2.22 -0.885,0 -1.643,-0.537 -2,-1.292 -0.408,1.427 -1.714,2.486 -3.268,2.486 -1.563,0 -2.877,-1.07 -3.278,-2.51 -0.355001,0.79549 -1.141917,1.310328 -2.013,1.317 -1.223797,-0.0055 -2.214524,-0.996203 -2.22,-2.22 0.0044,-1.224578 0.995427,-2.216516 2.22,-2.222 0.896,0 1.666,0.547 2.016,1.317 0.4,-1.44 1.713,-2.51 3.276,-2.51 z m 0,1.305 c -1.174,0 -2.11,0.937 -2.112,2.11 -0.0067,1.16919 0.94281,2.1187 2.112,2.112 1.167622,0.0056 2.115573,-0.942378 2.11,-2.11 0,-1.175 -0.937,-2.112 -2.11,-2.112 z m -5.29,1.193 c -0.509628,-0.0056 -0.924512,0.408361 -0.92,0.918 0,0.514 0.405,0.916 0.92,0.916 0.507821,0.0051 0.920631,-0.408185 0.915,-0.916 0.0062,-0.508757 -0.40723,-0.923086 -0.916,-0.918 z m 10.557,0 c -0.509628,-0.0056 -0.924512,0.408361 -0.92,0.918 0,0.514 0.405,0.916 0.92,0.916 0.508367,0.0056 0.922076,-0.407627 0.917,-0.916 0.0056,-0.509316 -0.408684,-0.923641 -0.918,-0.918 z"
     inkscape:connector-curvature="0"
     style="fill:#fcffff;fill-opacity:1"
     inkscape:export-filename="states-new.png"
     inkscape:export-xdpi="96"
     inkscape:export-ydpi="96" /><path
     style="fill:#000000;fill-opacity:1;stroke-width:0.94738883"
     d="m 36,82 a 8,8 0 0 0 -8,8 8,8 0 0 0 8,8 8,8 0 0 0 8,-8 8,8 0 0 0 -8,-8 z m -4,6.75 A 1.25,1.25 0 0 1 33.25,90 1.25,1.25 0 0 1 32,91.25 1.25,1.25 0 0 1 30.75,90 1.25,1.25 0 0 1 32,88.75 Z m 4,0 A 1.25,1.25 0 0 1 37.25,90 1.25,1.25 0 0 1 36,91.25 1.25,1.25 0 0 1 34.75,90 1.25,1.25 0 0 1 36,88.75 Z m 4,0 A 1.25,1.25 0 0 1 41.25,90 1.25,1.25 0 0 1 40,91.25 1.25,1.25 0 0 1 38.75,90 1.25,1.25 0 0 1 40,88.75 Z"
     id="circle5207"
     inkscape:connector-curvature="0" /><text
     xml:space="preserve"
     style="font-style:normal;font-weight:normal;font-size:40px;line-height:1.25;font-family:sans-serif;letter-spacing:0px;word-spacing:0px;fill:#000000;fill-opacity:1;stroke:none"
     x="81.559891"
     y="13.520837"
     id="text1065"
     inkscape:export-filename="states-new.png"
     inkscape:export-xdpi="96"
     inkscape:export-ydpi="96"><tspan
       sodipodi:role="line"
       x="81.559891"
       y="13.520837"
       style="font-style:normal;font-variant:normal;font-weight:600;font-stretch:normal;font-size:10.66666698px;line-height:0;font-family:'Open Sans';-inkscape-font-specification:'Open Sans Semi-Bold';text-align:start;text-anchor:start"
       id="tspan5235">all synced</tspan></text>
<text
     id="text5241"
     y="33.520836"
     x="81.559891"
     style="font-style:normal;font-weight:normal;font-size:40px;line-height:1.25;font-family:sans-serif;letter-spacing:0px;word-spacing:0px;fill:#000000;fill-opacity:1;stroke:none"
     xml:space="preserve"
     inkscape:export-filename="states-new.png"
     inkscape:export-xdpi="96"
     inkscape:export-ydpi="96"><tspan
       id="tspan5239"
       style="font-style:normal;font-variant:normal;font-weight:300;font-stretch:normal;font-size:10.66666698px;line-height:0;font-family:'Open Sans';-inkscape-font-specification:'Open Sans Light';text-align:start;text-anchor:start"
       y="33.520836"
       x="81.559891"
       sodipodi:role="line">syncing</tspan></text>
<text
     xml:space="preserve"
     style="font-style:normal;font-weight:normal;font-size:40px;line-height:1.25;font-family:sans-serif;letter-spacing:0px;word-spacing:0px;fill:#000000;fill-opacity:1;stroke:none"
     x="81.559891"
     y="53.520836"
     id="text5245"
     inkscape:export-filename="states-new.png"
     inkscape:export-xdpi="96"
     inkscape:export-ydpi="96"><tspan
       sodipodi:role="line"
       x="81.559891"
       y="53.520836"
       style="font-style:normal;font-variant:normal;font-weight:300;font-stretch:normal;font-size:10.66666698px;line-height:0;font-family:'Open Sans';-inkscape-font-specification:'Open Sans Light';text-align:start;text-anchor:start"
       id="tspan5243">paused</tspan></text>
<text
     id="text5265"
     y="73.520836"
     x="81.559891"
     style="font-style:normal;font-weight:normal;font-size:40px;line-height:1.25;font-family:sans-serif;letter-spacing:0px;word-spacing:0px;fill:#000000;fill-opacity:1;stroke:none"
     xml:space="preserve"
     inkscape:export-filename="states-new.png"
     inkscape:export-xdpi="96"
     inkscape:export-ydpi="96"><tspan
       id="tspan5263"
       style="font-style:normal;font-variant:normal;font-weight:300;font-stretch:normal;font-size:10.66666698px;line-height:0;font-family:'Open Sans';-inkscape-font-specification:'Open Sans Light';text-align:start;text-anchor:start"
       y="73.520836"
       x="81.559891"
       sodipodi:role="line">connecting / first run</tspan></text>
<text
     xml:space="preserve"
     style="font-style:normal;font-weight:normal;font-size:40px;line-height:1.25;font-family:sans-serif;letter-spacing:0px;word-spacing:0px;fill:#000000;fill-opacity:1;stroke:none"
     x="81.559891"
     y="93.520836"
     id="text5269"
     inkscape:export-filename="states-new.png"
     inkscape:export-xdpi="96"
     inkscape:export-ydpi="96"><tspan
       sodipodi:role="line"
       x="81.559891"
       y="93.520836"
       style="font-style:normal;font-variant:normal;font-weight:300;font-stretch:normal;font-size:10.66666698px;line-height:0;font-family:'Open Sans';-inkscape-font-specification:'Open Sans Light';text-align:start;text-anchor:start"
       id="tspan5267">connecting / first run (branded)</tspan></text>
<text
     id="text5273"
     y="113.52084"
     x="81.559891"
     style="font-style:normal;font-weight:normal;font-size:40px;line-height:1.25;font-family:sans-serif;letter-spacing:0px;word-spacing:0px;fill:#000000;fill-opacity:1;stroke:none"
     xml:space="preserve"
     inkscape:export-filename="states-new.png"
     inkscape:export-xdpi="96"
     inkscape:export-ydpi="96"><tspan
       id="tspan5271"
       style="font-style:normal;font-variant:normal;font-weight:300;font-stretch:normal;font-size:10.66666698px;line-height:0;font-family:'Open Sans';-inkscape-font-specification:'Open Sans Light';text-align:start;text-anchor:start"
       y="113.52084"
       x="81.559891"
       sodipodi:role="line">warning / conflicts</tspan></text>
<text
     xml:space="preserve"
     style="font-style:normal;font-weight:normal;font-size:40px;line-height:1.25;font-family:sans-serif;letter-spacing:0px;word-spacing:0px;fill:#000000;fill-opacity:1;stroke:none"
     x="81.559891"
     y="133.52084"
     id="text5277"
     inkscape:export-filename="states-new.png"
     inkscape:export-xdpi="96"
     inkscape:export-ydpi="96"><tspan
       sodipodi:role="line"
       x="81.559891"
       y="133.52084"
       style="font-style:normal;font-variant:normal;font-weight:300;font-stretch:normal;font-size:10.66666698px;line-height:0;font-family:'Open Sans';-inkscape-font-specification:'Open Sans Light';text-align:start;text-anchor:start"
       id="tspan5275">error</tspan></text>
<path
     id="path5372"
     d="m 10,2 a 8,8 0 0 0 -8,8 8,8 0 0 0 8,8 8,8 0 0 0 8,-8 8,8 0 0 0 -8,-8 z m 5.041016,4.4648438 a 1.00008,1.00008 0 0 1 0.726562,1.7167968 l -6.52539,6.5253904 a 1.00008,1.00008 0 0 1 -1.414063,0 L 4.302734,11.181641 A 1.00008,1.00008 0 1 1 5.716797,9.7675781 l 2.818359,2.8183599 5.81836,-5.8183599 a 1.00008,1.00008 0 0 1 0.6875,-0.3027343 z"
     style="fill:#ffffff;fill-opacity:1;stroke-width:0.94738883"
     inkscape:connector-curvature="0" /><path
     id="path5374"
     d="m 10,122 a 8,8 0 0 0 -8,8 8,8 0 0 0 8,8 8,8 0 0 0 8,-8 8,8 0 0 0 -8,-8 z m -3.535156,3.46484 a 1.0000998,1.0000998 0 0 1 0.716797,0.30274 L 10,128.58594 l 2.818359,-2.81836 a 1.0000998,1.0000998 0 0 1 0.6875,-0.30274 1.0000998,1.0000998 0 0 1 0.726563,1.7168 L 11.414062,130 l 2.81836,2.81836 a 1.0000998,1.0000998 0 1 1 -1.414063,1.41406 L 10,131.41406 7.181641,134.23242 A 1.0000998,1.0000998 0 1 1 5.767578,132.81836 L 8.585938,130 5.767578,127.18164 a 1.0000998,1.0000998 0 0 1 0.697266,-1.7168 z"
     style="fill:#ffffff;fill-opacity:1;stroke-width:0.94738883"
     inkscape:connector-curvature="0" /><path
     id="path5376"
     d="m 10,102 a 8,8 0 0 0 -8,8 8,8 0 0 0 8,8 8,8 0 0 0 8,-8 8,8 0 0 0 -8,-8 z m -0.01563,3 A 1.0000998,1.0000998 0 0 1 11,106.01367 v 4.97266 a 1.0000998,1.0000998 0 1 1 -2,0 v -4.97266 A 1.0000998,1.0000998 0 0 1 9.984375,105 Z m -0.0078,7.78125 a 1.25,1.25 0 0 1 1.25,1.25 1.25,1.25 0 0 1 -1.25,1.25 1.25,1.25 0 0 1 -1.25,-1.25 1.25,1.25 0 0 1 1.25,-1.25 z"
     style="fill:#ffffff;fill-opacity:1;stroke-width:0.94738883"
     inkscape:connector-curvature="0" /><path
     id="path5378"
     d="m 10,62 a 8,8 0 0 0 -8,8 8,8 0 0 0 8,8 8,8 0 0 0 8,-8 8,8 0 0 0 -8,-8 z m 0.01172,4.601562 c 1.554,0 2.859531,1.060329 3.269531,2.486329 0.355,-0.756 1.114047,-1.291016 1.998047,-1.291016 1.223797,0.0055 2.213274,0.996906 2.21875,2.220703 -0.0055,1.223797 -0.994953,2.215227 -2.21875,2.220703 -0.885,0 -1.643,-0.537969 -2,-1.292969 -0.408,1.427001 -1.713578,2.486329 -3.267578,2.486329 -1.563,0 -2.878297,-1.069766 -3.279297,-2.509766 -0.355001,0.79549 -1.140636,1.309734 -2.011719,1.316406 C 3.496906,72.232781 2.505476,71.241375 2.5,70.017578 2.5044,68.793 3.49613,67.802359 4.720703,67.796875 c 0.896,0 1.665625,0.546406 2.015625,1.316406 0.4,-1.44 1.712391,-2.509765 3.275391,-2.509765 z m 0,1.304688 c -1.174,0 -2.109328,0.936375 -2.111328,2.109375 -0.0067,1.16919 0.942138,2.119981 2.111328,2.113281 1.167622,0.0056 2.114948,-0.943706 2.109375,-2.111328 0,-1.175 -0.936375,-2.111328 -2.109375,-2.111328 z m -5.291016,1.193359 c -0.508711,-0.0045 -0.922475,0.408998 -0.917969,0.917969 0,0.514 0.404922,0.916016 0.919922,0.916016 0.507821,0.0051 0.919694,-0.408201 0.914063,-0.916016 0.0062,-0.508091 -0.406208,-0.921952 -0.914063,-0.917969 z m 10.556641,0 c -0.508711,-0.0045 -0.922475,0.408998 -0.917969,0.917969 0,0.514 0.404922,0.916016 0.919922,0.916016 0.508367,0.0056 0.921092,-0.407643 0.916015,-0.916016 0.0056,-0.508648 -0.407616,-0.922503 -0.916015,-0.917969 z"
     style="fill:#ffffff;fill-opacity:1;stroke-width:0.94738883"
     inkscape:connector-curvature="0" /><path
     id="path5380"
     d="m 10,42 a 8,8 0 0 0 -8,8 8,8 0 0 0 8,8 8,8 0 0 0 8,-8 8,8 0 0 0 -8,-8 z M 7.984375,45 A 1.0000998,1.0000998 0 0 1 9,46.013672 v 7.972656 a 1.0000998,1.0000998 0 1 1 -2,0 V 46.013672 A 1.0000998,1.0000998 0 0 1 7.984375,45 Z m 4,0 A 1.0000998,1.0000998 0 0 1 13,46.013672 v 7.972656 a 1.0000998,1.0000998 0 1 1 -2,0 V 46.013672 A 1.0000998,1.0000998 0 0 1 11.984375,45 Z"
     style="fill:#ffffff;fill-opacity:1;stroke-width:0.94738883"
     inkscape:connector-curvature="0" /><path
     id="path5382"
     d="m 10,22 a 8,8 0 0 0 -8,8 8,8 0 0 0 8,8 8,8 0 0 0 8,-8 8,8 0 0 0 -8,-8 z m 0,3 c 1.422994,0 2.754717,0.613435 3.691406,1.642578 A 1.00008,1.00008 0 0 1 14.609375,26 1.00008,1.00008 0 0 1 15.625,27.013672 V 29 a 1.00008,1.00008 0 0 1 -1,1 h -1.986328 a 1.00008,1.00008 0 1 1 0,-2 h 0.02344 C 12.037213,27.167849 11.056525,26.666016 10,26.666016 c -1.192221,0 -2.290608,0.635475 -2.886719,1.667968 A 0.83348883,0.83348883 0 1 1 5.669922,27.5 C 6.562418,25.954152 8.215008,25 10,25 Z m -4.5625,5 h 1.986328 a 1.00008,1.00008 0 1 1 0,2 h -0.08594 c 0.624896,0.832151 1.605584,1.333984 2.662109,1.333984 1.192221,0 2.290608,-0.635475 2.886719,-1.667968 A 0.83349013,0.83349013 0 1 1 14.330078,32.5 C 13.437582,34.045848 11.784992,35 10,35 8.598193,35 7.28408,34.405675 6.349609,33.404297 A 1.00008,1.00008 0 0 1 4.4375,32.986328 V 31 a 1.00008,1.00008 0 0 1 1,-1 z"
     style="fill:#ffffff;fill-opacity:1;stroke-width:0.94738883"
     inkscape:connector-curvature="0" /><path
     id="path5384"
     d="m 10,82 a 8,8 0 0 0 -8,8 8,8 0 0 0 8,8 8,8 0 0 0 8,-8 8,8 0 0 0 -8,-8 z M 6,88.75 A 1.25,1.25 0 0 1 7.25,90 1.25,1.25 0 0 1 6,91.25 1.25,1.25 0 0 1 4.75,90 1.25,1.25 0 0 1 6,88.75 Z m 4,0 A 1.25,1.25 0 0 1 11.25,90 1.25,1.25 0 0 1 10,91.25 1.25,1.25 0 0 1 8.75,90 1.25,1.25 0 0 1 10,88.75 Z m 4,0 A 1.25,1.25 0 0 1 15.25,90 1.25,1.25 0 0 1 14,91.25 1.25,1.25 0 0 1 12.75,90 1.25,1.25 0 0 1 14,88.75 Z"
     style="fill:#ffffff;fill-opacity:1;stroke-width:0.94738883"
     inkscape:connector-curvature="0" /></svg>