<?xml version="1.0" encoding="UTF-8" standalone="no"?>
<svg
   xmlns:dc="http://purl.org/dc/elements/1.1/"
   xmlns:cc="http://creativecommons.org/ns#"
   xmlns:rdf="http://www.w3.org/1999/02/22-rdf-syntax-ns#"
   xmlns:svg="http://www.w3.org/2000/svg"
   xmlns="http://www.w3.org/2000/svg"
   xmlns:sodipodi="http://sodipodi.sourceforge.net/DTD/sodipodi-0.dtd"
   xmlns:inkscape="http://www.inkscape.org/namespaces/inkscape"
   enable-background="new 0 0 64 64"
   xml:space="preserve"
   viewBox="0 0 64 64"
   version="1.1"
   y="0px"
   x="0px"
   id="svg2"
   inkscape:version="0.91 r13725"
   sodipodi:docname="state-ok-2.svg"><metadata
     id="metadata16"><rdf:RDF><cc:Work
         rdf:about=""><dc:format>image/svg+xml</dc:format><dc:type
           rdf:resource="http://purl.org/dc/dcmitype/StillImage" /><dc:title></dc:title></cc:Work></rdf:RDF></metadata><defs
     id="defs14" /><sodipodi:namedview
     pagecolor="#ffffff"
     bordercolor="#666666"
     borderopacity="1"
     objecttolerance="10"
     gridtolerance="10"
     guidetolerance="10"
     inkscape:pageopacity="0"
     inkscape:pageshadow="2"
     inkscape:window-width="640"
     inkscape:window-height="480"
     id="namedview12"
     showgrid="false"
     inkscape:zoom="5.0234375"
     inkscape:cx="47.644828"
     inkscape:cy="22.131369"
     inkscape:current-layer="svg2" /><path
     inkscape:connector-curvature="0"
     id="path6"
     d="M 32.049,16.865 C 25.381,16.866 19.782,21.431 18.072,27.572 16.579,24.288 13.292,21.959 9.4727,21.959 4.275,21.96 7e-4,26.233 0,31.432 c -9.323e-4,5.199 4.2735,9.474 9.4727,9.474 3.8193,0 7.1023,-2.33 8.5953,-5.615 1.71,6.143 7.313,10.709 13.981,10.709 6.6315,5.12e-4 12.203,-4.5154 13.949,-10.605 1.5174,3.2246 4.7526,5.5113 8.5273,5.5117 5.2001,9.28e-4 9.4754,-4.2744 9.4746,-9.4746 -5.12e-4,-5.1992 -4.2755,-9.4734 -9.4746,-9.4727 -3.7749,9.59e-4 -7.0125,2.2871 -8.5293,5.5117 -1.747,-6.089 -7.316,-10.606 -13.947,-10.606 z m 5.3516,6.8555 2.7422,2.7422 -9.082,12.682 -7.1992,-5.4844 1.8008,-2.7422 4.541,3.5996 7.1973,-10.797 z m -27.928,3.8 c 2.1936,2.54e-4 3.9118,1.7185 3.9121,3.9121 3.85e-4,2.1941 -1.7179,3.9138 -3.9121,3.9141 -2.1941,-2.56e-4 -3.9123,-1.72 -3.9121,-3.9141 2.566e-4,-2.1935 1.7184,-3.9118 3.9121,-3.9121 z m 45.053,0 c 2.194,-3.84e-4 3.9138,1.718 3.9141,3.9121 5.12e-4,2.1946 -1.7195,3.9144 -3.9141,3.9141 -2.1941,-2.56e-4 -3.9124,-1.72 -3.9121,-3.9141 2.48e-4,-2.1935 1.7185,-3.9118 3.9121,-3.9121 z"
     style="color:#000000;text-indent:0;text-decoration:none;text-decoration-line:none;text-decoration-style:solid;text-decoration-color:#000000;text-transform:none;block-progression:tb;white-space:normal;isolation:auto;mix-blend-mode:normal;solid-color:#000000;fill:#0082c9;fill-opacity:1;color-rendering:auto;image-rendering:auto;shape-rendering:auto;enable-background:accumulate" /><path
     inkscape:connector-curvature="0"
     style="fill:#5eb220;fill-opacity:1"
     id="path7"
     d="M 43.046662,22.006471 C 40.390235,18.835897 36.36275,16.865 31.9925,16.865 c -4.37025,0 -8.397735,1.970897 -11.054162,5.141471 C 18.796059,24.577206 17.425,27.833471 17.425,31.4325 17.425,39.487471 23.937529,46 31.9925,46 40.047471,46 46.56,39.487471 46.56,31.4325 c 0,-3.599029 -1.285368,-6.855294 -3.513338,-9.426029 z m -11.996765,17.138235 -7.198059,-5.484235 1.799515,-2.742118 4.541632,3.599029 7.198059,-10.797088 2.742118,2.742118 -9.083265,12.682294 z" /></svg>