<?xml version="1.0" encoding="UTF-8" standalone="no"?>
<svg xmlns="http://www.w3.org/2000/svg" enable-background="new 0 0 64 64" xml:space="preserve" viewBox="0 0 64 64" version="1.1" y="0px" x="0px"><path style="color-rendering:auto;text-decoration-color:#000000;color:#000000;isolation:auto;mix-blend-mode:normal;shape-rendering:auto;solid-color:#000000;block-progression:tb;text-decoration-line:none;image-rendering:auto;white-space:normal;text-indent:0;enable-background:accumulate;text-transform:none;text-decoration-style:solid" fill="#fff" d="m32.049 16.865c-6.668 0.001-12.267 4.566-13.977 10.707-1.493-3.284-4.78-5.613-8.5993-5.613-5.1977 0.001-9.472 4.274-9.4727 9.473-0.000933 5.199 4.2735 9.474 9.4727 9.474 3.8193 0 7.1023-2.33 8.5953-5.615 1.71 6.143 7.313 10.709 13.981 10.709 6.6315 0.000512 12.203-4.5154 13.949-10.605 1.5174 3.2246 4.7526 5.5113 8.5273 5.5117 5.2001 0.000928 9.4754-4.2744 9.4746-9.4746-0.000512-5.1992-4.2755-9.4734-9.4746-9.4727-3.7749 0.000959-7.0125 2.2871-8.5293 5.5117-1.747-6.089-7.316-10.606-13.947-10.606zm0.03906 5.998c2.7421 0 5.3133 1.2857 6.9414 3.5137l1.1133-1.457 0.42969 4.9707v0.42773l-5.3145 0.94336 1.6289-2.1426c-0.9426-1.8852-2.8282-3.0859-4.8848-3.0859-0.34276 0-0.59864 0.000248-0.94141 0.08594-1.8852 0.34276-3.5137 1.6282-4.1992 3.4277v0.25781l-3.4277 0.59961 0.08594-0.42774c0.68553-3.5133 3.4264-6.3416 7.0254-6.9414 0.51415-0.08569 1.0288-0.17188 1.543-0.17188zm-22.615 4.6562c2.1936 0.000254 3.9118 1.7185 3.9121 3.9121 0.000385 2.1941-1.7179 3.9138-3.9121 3.9141-2.1941-0.000256-3.9123-1.72-3.9121-3.9141 0.000256-2.1935 1.7184-3.9118 3.9121-3.9121zm45.053 0c2.194-0.000384 3.9138 1.718 3.9141 3.9121 0.000512 2.1946-1.7195 3.9144-3.9141 3.9141-2.1941-0.000256-3.9124-1.72-3.9121-3.9141 0.000248-2.1935 1.7185-3.9118 3.9121-3.9121zm-25.865 4.3418-1.627 2.1426c0.9426 1.8852 2.8262 2.998 4.8828 2.998 0.34276 0 0.60059-0.000247 0.94336-0.08594 1.8852-0.34276 3.4278-1.6282 4.1133-3.4277l0.08594-0.16992 3.4277-0.59961v0.3418c-0.34276 1.7138-1.115 3.2554-2.4004 4.4551-1.2854 1.2854-2.8274 2.0576-4.627 2.4004-0.51415 0.08569-1.0288 0.17188-1.543 0.17188-2.7421 0-5.3113-1.2857-6.9395-3.5137l-1.1152 1.457-0.42773-5.0566v-0.25586l3.084-0.51562 2.1426-0.3418z"/></svg>
