<?xml version="1.0" encoding="UTF-8" standalone="no"?>
<svg xmlns="http://www.w3.org/2000/svg" enable-background="new 0 0 64 64" xml:space="preserve" viewBox="0 0 64 64" version="1.1" y="0px" x="0px"><path d="m32.002 16.865c-0.05264 0-0.10371 0.0072-0.15625 0.0078-0.40904 0.0058-0.81477 0.02892-1.2148 0.06836-0.23866 0.02272-0.4733 0.05749-0.70898 0.0918-0.2027 0.03027-0.40366 0.06289-0.60352 0.10156-0.28266 0.05347-0.5626 0.11187-0.83984 0.18164-0.07378 0.01895-0.14543 0.04241-0.21875 0.0625-2.8761 0.77226-5.4373 2.3912-7.3105 4.627-1.3199 1.5839-2.3434 3.4309-2.9375 5.4551-1.518-3.223-4.765-5.502-8.5393-5.502-5.1977 0.001-9.472 4.274-9.4727 9.473-0.000933 5.199 4.2735 9.474 9.4727 9.474 3.7683 0 7.0073-2.272 8.5273-5.488 1.5141 5.3409 5.986 9.4155 11.545 10.359 0.07315 0.01292 0.14718 0.02335 0.2207 0.03516 0.31885 0.04912 0.63752 0.09685 0.96289 0.125 0.32812 0.03004 0.66196 0.04134 0.99609 0.04883 0.09327 0.0018 0.18365 0.01367 0.27734 0.01367 0.0073 0 0.01422-0.0019 0.02148-0.002 0.0086 0.000015 0.01683 0.002 0.02539 0.002 0.46298 0.000036 0.91938-0.02732 1.3711-0.07031 0.10065-0.0097 0.19879-0.02734 0.29883-0.03906 0.361-0.04207 0.71797-0.09367 1.0703-0.16211 0.12868-0.02487 0.25537-0.05381 0.38281-0.08203 0.30477-0.06795 0.60515-0.14539 0.90234-0.23242 0.15664-0.04544 0.31239-0.09207 0.4668-0.14258 0.23762-0.07851 0.47111-0.16545 0.70312-0.25586 0.19748-0.07612 0.39664-0.14806 0.58984-0.23242 0.09372-0.04138 0.18272-0.09146 0.27539-0.13476 3.8184-1.7646 6.7347-5.1245 7.8984-9.2363 1.521 3.215 4.75 5.4937 8.5176 5.4941 5.2001 0.000928 9.4754-4.2744 9.4746-9.4746-0.000512-5.1992-4.2755-9.4734-9.4746-9.4727-3.7637 0.000957-6.9912 2.2749-8.5137 5.4844-0.42016-1.4671-1.0758-2.8351-1.9258-4.082-0.03781-0.05667-0.07471-0.11381-0.11328-0.16992-0.11202-0.15946-0.2291-0.31553-0.34766-0.4707-0.17839-0.2387-0.36251-0.47205-0.55469-0.69922-0.0045-0.0053-0.0092-0.01035-0.01367-0.01563-0.0056-0.0067-0.01194-0.01282-0.01758-0.01953-0.29486-0.34632-0.60645-0.67681-0.93164-0.99414-0.06194-0.0607-0.12251-0.12208-0.18555-0.18164-0.35177-0.33138-0.71463-0.64998-1.0977-0.94531-0.38814-0.29928-0.7954-0.57465-1.2129-0.83398-0.0534-0.03302-0.10826-0.06336-0.16211-0.0957-0.40466-0.24413-0.82105-0.46961-1.25-0.67383-0.0095-0.0045-0.01788-0.01114-0.02734-0.01563-0.0045-0.0021-0.0092-0.0038-0.01367-0.0059-0.92446-0.43648-1.9013-0.77361-2.9199-1.0059-0.03249-0.0075-0.06509-0.01424-0.09766-0.02148-0.44855-0.09897-0.90401-0.17664-1.3672-0.23242-0.08091-0.01-0.16093-0.02262-0.24219-0.03125-0.48803-0.05033-0.98104-0.08402-1.4824-0.08398-0.0092 0.000001-0.01814 0.0019-0.02734 0.002-0.0066-0.000009-0.01293-0.002-0.01953-0.002zm-1.7129 6.8555h3.4277v10.197l4.283-4.284v4.1133l-5.998 5.3984-5.998-5.3984v-4.1992l4.2852 4.2852v-10.111zm-20.816 3.8c2.1936 0.000254 3.9118 1.7185 3.9121 3.9121 0.000385 2.1941-1.7179 3.9138-3.9121 3.9141-2.1941-0.000256-3.9123-1.72-3.9121-3.9141 0.000256-2.1935 1.7184-3.9118 3.9121-3.9121zm45.053 0c2.194-0.000384 3.9138 1.718 3.9141 3.9121 0.000512 2.1946-1.7195 3.9144-3.9141 3.9141-2.1941-0.000256-3.9124-1.72-3.9121-3.9141 0.000248-2.1935 1.7185-3.9118 3.9121-3.9121z" fill-rule="evenodd" clip-rule="evenodd" fill="#fff"/></svg>
