<?xml version="1.0" encoding="UTF-8" standalone="no"?>
<svg
   xmlns:dc="http://purl.org/dc/elements/1.1/"
   xmlns:cc="http://creativecommons.org/ns#"
   xmlns:rdf="http://www.w3.org/1999/02/22-rdf-syntax-ns#"
   xmlns:svg="http://www.w3.org/2000/svg"
   xmlns="http://www.w3.org/2000/svg"
   xmlns:sodipodi="http://sodipodi.sourceforge.net/DTD/sodipodi-0.dtd"
   xmlns:inkscape="http://www.inkscape.org/namespaces/inkscape"
   version="1.1"
   xml:space="preserve"
   height="126"
   width="266"
   enable-background="new 0 0 196.6 72"
   y="0px"
   x="0px"
   viewBox="0 0 266.00001 126.0018"
   id="svg2"
   inkscape:version="0.91 r13725"
   sodipodi:docname="wizard_logo.svg"
   inkscape:export-filename="wizard_logo.png"
   inkscape:export-xdpi="44.66"
   inkscape:export-ydpi="44.66"><metadata
     id="metadata10"><rdf:RDF><cc:Work
         rdf:about=""><dc:format>image/svg+xml</dc:format><dc:type
           rdf:resource="http://purl.org/dc/dcmitype/StillImage" /><dc:title></dc:title></cc:Work></rdf:RDF></metadata><defs
     id="defs8" /><sodipodi:namedview
     pagecolor="#ffffff"
     bordercolor="#666666"
     borderopacity="1"
     objecttolerance="10"
     gridtolerance="10"
     guidetolerance="10"
     inkscape:pageopacity="0"
     inkscape:pageshadow="2"
     inkscape:window-width="640"
     inkscape:window-height="480"
     id="namedview6"
     showgrid="false"
     inkscape:zoom="3.5357143"
     inkscape:cx="97.151515"
     inkscape:cy="48.686869"
     inkscape:current-layer="svg2" /><path
     style="color:#000000;text-indent:0;text-decoration:none;text-decoration-line:none;text-decoration-style:solid;text-decoration-color:#000000;text-transform:none;block-progression:tb;white-space:normal;isolation:auto;mix-blend-mode:normal;solid-color:#000000;fill:#ffffff;color-rendering:auto;image-rendering:auto;shape-rendering:auto;enable-background:accumulate"
     d="m 134.18824,6.1907111 c -26.05,0.0025 -47.917005,17.8349989 -54.600005,41.8269989 -5.832,-12.832 -18.671,-21.926 -33.588,-21.927 -20.305,0.002 -36.9999983,16.697 -37.0019983,37.002 -0.00364,20.309 16.6929983,37.00801 37.0019983,37.01001 14.918,-0.002 27.748,-9.10141 33.58,-21.93501 6.6801,23.99501 28.558005,41.83201 54.608005,41.83401 25.904,0.002 47.668,-17.641 54.486,-41.43001 5.9271,12.596 18.568,21.52901 33.314,21.53101 20.313,0.004 37.013,-16.69701 37.01,-37.01001 -0.002,-20.309 -16.701,-37.006 -37.01,-37.002 -14.746,0.0017 -27.395,8.933 -33.321,21.531 -6.81,-23.79 -28.57,-41.4329989 -54.47,-41.4309989 z m 0,21.7209989 c 19.561,-0.0013 35.186,15.62 35.188,35.181 0.001,19.563 -15.625,35.190005 -35.188,35.188005 -19.56,-0.001 -35.182005,-15.627005 -35.180005,-35.188005 0.002,-19.559 15.620005,-35.179 35.180005,-35.181 z m -88.188005,19.9 c 8.5689,9.9e-4 15.28,6.7122 15.281,15.281 0.0015,8.5707 -6.7103,15.288 -15.281,15.289 -8.5707,-0.001 -15.283,-6.718 -15.281,-15.289 10e-4,-8.5689 6.7122,-15.28 15.281,-15.281 z m 175.990005,0 c 8.5705,-0.0015 15.288,6.7103 15.289,15.281 0.002,8.5726 -6.7159,15.29 -15.289,15.289 -8.5708,-0.001 -15.283,-6.718 -15.281,-15.289 9.7e-4,-8.5689 6.7124,-15.28 15.281,-15.281 z"
     id="path4"
     inkscape:connector-curvature="0" /></svg>