<?xml version="1.0" encoding="UTF-8" standalone="no"?>
<svg xmlns="http://www.w3.org/2000/svg" version="1.1" xml:space="preserve" height="57" width="150" enable-background="new 0 0 595.275 311.111" y="0px" x="0px" viewBox="0 0 150 56.999995"><rect height="57" width="150" y="0" x="0" fill="#0082c9"/><path style="color-rendering:auto;text-decoration-color:#000000;color:#000000;isolation:auto;mix-blend-mode:normal;shape-rendering:auto;solid-color:#000000;block-progression:tb;text-decoration-line:none;image-rendering:auto;white-space:normal;text-indent:0;enable-background:accumulate;text-transform:none;text-decoration-style:solid" fill="#fff" d="m46.049 13.862c-6.6679 0.0005-12.267 4.5663-13.978 10.708-1.4931-3.2852-4.7797-5.6134-8.5984-5.6138-5.1981 0.0005-9.472 4.2749-9.4726 9.4734-0.0011 5.1995 4.2735 9.4747 9.4726 9.4753 3.8191-0.000365 7.1036-2.3301 8.5965-5.6158 1.7101 6.1431 7.3109 10.71 13.98 10.71 6.6315 0.000365 12.203-4.5164 13.948-10.607 1.5173 3.2249 4.7535 5.5119 8.5282 5.5123 5.2002 0.001 9.4754-4.2747 9.4746-9.4753-0.000365-5.1995-4.2754-9.4742-9.4746-9.4734-3.7749 0.000365-7.0129 2.287-8.5301 5.5123-1.745-6.09-7.315-10.607-13.946-10.606zm0 5.5612c5.0076-0.00036 9.0078 3.9991 9.0082 9.007 0.000285 5.0086-4 9.0094-9.0082 9.009-5.0076-0.000365-9.0067-4.001-9.0063-9.009 0.000364-5.0073 3.9994-9.0064 9.0063-9.007zm-22.577 5.095c2.1937 0.000285 3.9117 1.7185 3.9119 3.9122 0.000356 2.1942-1.7178 3.914-3.9119 3.9142-2.1941-0.00028-3.9123-1.72-3.9119-3.9142 0.000283-2.1938 1.7183-3.912 3.9119-3.9122zm45.054 0c2.1941-0.000355 3.9136 1.718 3.9138 3.9122 0.000365 2.1948-1.7192 3.9146-3.9138 3.9142-2.1941-0.00028-3.9123-1.72-3.9121-3.9142 0.000285-2.1938 1.7184-3.912 3.9121-3.9122z"/></svg>
