<?xml version="1.0" encoding="UTF-8" standalone="no"?>
<svg xmlns="http://www.w3.org/2000/svg" enable-background="new 0 0 64 64" xml:space="preserve" viewBox="0 0 64 64" version="1.1" y="0px" x="0px"><path style="color-rendering:auto;text-decoration-color:#000000;color:#000000;isolation:auto;mix-blend-mode:normal;shape-rendering:auto;solid-color:#000000;block-progression:tb;text-decoration-line:none;image-rendering:auto;white-space:normal;text-indent:0;enable-background:accumulate;text-transform:none;text-decoration-style:solid" fill="#fff" d="m32.049 16.865c-6.668 0.001-12.267 4.566-13.977 10.707-1.493-3.284-4.78-5.613-8.5993-5.613-5.1977 0.001-9.472 4.274-9.4727 9.473-0.000933 5.199 4.2735 9.474 9.4727 9.474 3.8193 0 7.1023-2.33 8.5953-5.615 1.71 6.143 7.313 10.709 13.981 10.709 6.6315 0.000512 12.203-4.5154 13.949-10.605 1.5174 3.2246 4.7526 5.5113 8.5273 5.5117 5.2001 0.000928 9.4754-4.2744 9.4746-9.4746-0.000512-5.1992-4.2755-9.4734-9.4746-9.4727-3.7749 0.000959-7.0125 2.2871-8.5293 5.5117-1.747-6.089-7.316-10.606-13.947-10.606zm-0.04687 5.1406c1.4568 0 2.5703 0.94315 2.5703 2.2285l-0.76953 8.5684c0 0.59984-0.0013 2.1426-1.8008 2.1426s-1.7988-1.5427-1.7988-2.1426l-0.77148-8.5684c0-1.1997 1.1136-2.2285 2.5703-2.2285zm-22.529 5.514c2.1936 0.000254 3.9118 1.7185 3.9121 3.9121 0.000385 2.1941-1.7179 3.9138-3.9121 3.9141-2.1941-0.000256-3.9123-1.72-3.9121-3.9141 0.000256-2.1935 1.7184-3.9118 3.9121-3.9121zm45.053 0c2.194-0.000384 3.9138 1.718 3.9141 3.9121 0.000512 2.1946-1.7195 3.9144-3.9141 3.9141-2.1941-0.000256-3.9124-1.72-3.9121-3.9141 0.000248-2.1935 1.7185-3.9118 3.9121-3.9121zm-22.523 8.627c1.1997 0 2.2285 0.9412 2.2285 2.2266 0 1.1997-1.0288 2.2285-2.2285 2.2285s-2.2266-0.94315-2.2266-2.2285c0-1.1997 0.94119-2.2266 2.2266-2.2266z"/></svg>
