<svg xmlns="http://www.w3.org/2000/svg" height="16" width="16" version="1.1" viewBox="0 0 4.2333331 4.2333334"><g transform="translate(0 -292.77)"><path d="m2.1167 292.77a2.1167 2.1167 0 0 0 -2.1167 2.11 2.1167 2.1167 0 0 0 2.1167 2.1167 2.1167 2.1167 0 0 0 2.1167 -2.1167 2.1167 2.1167 0 0 0 -2.1167 -2.1167zm-1.0583 1.7859a0.33073 0.33073 0 0 1 0.33073 0.33073 0.33073 0.33073 0 0 1 -0.33073 0.33073 0.33073 0.33073 0 0 1 -0.33073 -0.33073 0.33073 0.33073 0 0 1 0.33073 -0.33073zm1.0583 0a0.33073 0.33073 0 0 1 0.33073 0.33073 0.33073 0.33073 0 0 1 -0.33073 0.33073 0.33073 0.33073 0 0 1 -0.33073 -0.33073 0.33073 0.33073 0 0 1 0.33073 -0.33073zm1.0583 0a0.33073 0.33073 0 0 1 0.3307 0.32 0.33073 0.33073 0 0 1 -0.3307 0.33 0.33073 0.33073 0 0 1 -0.3307 -0.33 0.33073 0.33073 0 0 1 0.3307 -0.33z" stroke-width=".25066" fill="#fff"/></g></svg>
