<?xml version="1.0" encoding="UTF-8" standalone="no"?>
<!-- Generator: Adobe Illustrator 18.0.0, SVG Export Plug-In . SVG Version: 6.00 Build 0)  -->

<svg
   xmlns:dc="http://purl.org/dc/elements/1.1/"
   xmlns:cc="http://creativecommons.org/ns#"
   xmlns:rdf="http://www.w3.org/1999/02/22-rdf-syntax-ns#"
   xmlns:svg="http://www.w3.org/2000/svg"
   xmlns="http://www.w3.org/2000/svg"
   xmlns:sodipodi="http://sodipodi.sourceforge.net/DTD/sodipodi-0.dtd"
   xmlns:inkscape="http://www.inkscape.org/namespaces/inkscape"
   version="1.1"
   id="Ebene_1"
   x="0px"
   y="0px"
   viewBox="0 0 64 64"
   enable-background="new 0 0 64 64"
   xml:space="preserve"
   inkscape:version="0.91 r13725"
   sodipodi:docname="state-warning.svg"><metadata
     id="metadata7464"><rdf:RDF><cc:Work
         rdf:about=""><dc:format>image/svg+xml</dc:format><dc:type
           rdf:resource="http://purl.org/dc/dcmitype/StillImage" /></cc:Work></rdf:RDF></metadata><defs
     id="defs7462" /><sodipodi:namedview
     pagecolor="#ffffff"
     bordercolor="#666666"
     borderopacity="1"
     objecttolerance="10"
     gridtolerance="10"
     guidetolerance="10"
     inkscape:pageopacity="0"
     inkscape:pageshadow="2"
     inkscape:window-width="640"
     inkscape:window-height="480"
     id="namedview7460"
     showgrid="false"
     inkscape:zoom="10.046875"
     inkscape:cx="5.9222395"
     inkscape:cy="32"
     inkscape:current-layer="Ebene_1" /><path
     style="color:#000000;text-indent:0;text-decoration:none;text-decoration-line:none;text-decoration-style:solid;text-decoration-color:#000000;text-transform:none;block-progression:tb;white-space:normal;isolation:auto;mix-blend-mode:normal;solid-color:#000000;fill:#000000;fill-opacity:1;color-rendering:auto;image-rendering:auto;shape-rendering:auto;enable-background:accumulate"
     d="M 32.048828 14.865234 C 25.381426 14.865906 19.782258 19.43101 18.072266 25.572266 C 16.578544 22.28783 13.291566 19.959432 9.4726562 19.958984 C 4.2749972 19.959545 0.000672 24.233244 0 29.431641 C -0.000933 34.630821 4.2735402 38.905578 9.4726562 38.90625 C 13.291678 38.905792 16.575309 36.576349 18.068359 33.291016 C 19.778463 39.43373 25.380529 44 32.048828 44 C 38.680372 44.000512 44.252196 39.484577 45.998047 33.394531 C 47.515412 36.619128 50.750633 38.905802 54.525391 38.90625 C 59.725516 38.907178 64.000784 34.631831 64 29.431641 C 63.999488 24.232461 59.724508 19.9582 54.525391 19.958984 C 50.750521 19.959943 47.512899 22.246106 45.996094 25.470703 C 44.249123 19.381665 38.680372 14.864786 32.048828 14.865234 z M 32.001953 20.005859 C 33.458703 20.005859 34.572266 20.949008 34.572266 22.234375 L 33.802734 30.802734 C 33.802734 31.402572 33.801468 32.945312 32.001953 32.945312 C 30.202438 32.945312 30.203125 31.402572 30.203125 30.802734 L 29.431641 22.234375 C 29.431641 21.034699 30.545203 20.005859 32.001953 20.005859 z M 9.4726562 25.519531 C 11.666288 25.519785 13.38443 27.237982 13.384766 29.431641 C 13.385151 31.625747 11.666849 33.345478 9.4726562 33.345703 C 7.2785772 33.345447 5.5603229 31.625747 5.5605469 29.431641 C 5.5608029 27.238094 7.2789143 25.519868 9.4726562 25.519531 z M 54.525391 25.519531 C 56.719359 25.519147 58.439229 27.237534 58.439453 29.431641 C 58.439965 31.626195 56.719919 33.346039 54.525391 33.345703 C 52.331312 33.345447 50.612945 31.625747 50.613281 29.431641 C 50.613529 27.238094 52.33176 25.519868 54.525391 25.519531 z M 32.001953 34.146484 C 33.201629 34.146484 34.230469 35.08768 34.230469 36.373047 C 34.230469 37.572724 33.201629 38.601562 32.001953 38.601562 C 30.802277 38.601562 29.775391 37.658415 29.775391 36.373047 C 29.775391 35.173371 30.716585 34.146484 32.001953 34.146484 z "
     id="path4" /></svg>