<?xml version="1.0" encoding="UTF-8" standalone="no"?>
<!-- Generator: Adobe Illustrator 18.0.0, SVG Export Plug-In . SVG Version: 6.00 Build 0)  -->

<svg
   xmlns:dc="http://purl.org/dc/elements/1.1/"
   xmlns:cc="http://creativecommons.org/ns#"
   xmlns:rdf="http://www.w3.org/1999/02/22-rdf-syntax-ns#"
   xmlns:svg="http://www.w3.org/2000/svg"
   xmlns="http://www.w3.org/2000/svg"
   xmlns:sodipodi="http://sodipodi.sourceforge.net/DTD/sodipodi-0.dtd"
   xmlns:inkscape="http://www.inkscape.org/namespaces/inkscape"
   version="1.1"
   id="Ebene_1"
   x="0px"
   y="0px"
   viewBox="0 0 64 64"
   enable-background="new 0 0 64 64"
   xml:space="preserve"
   inkscape:version="0.91 r13725"
   sodipodi:docname="state-offline.svg"
   inkscape:export-filename="state-offline-256.png"
   inkscape:export-xdpi="360"
   inkscape:export-ydpi="360"><metadata
     id="metadata5252"><rdf:RDF><cc:Work
         rdf:about=""><dc:format>image/svg+xml</dc:format><dc:type
           rdf:resource="http://purl.org/dc/dcmitype/StillImage" /></cc:Work></rdf:RDF></metadata><defs
     id="defs5250" /><sodipodi:namedview
     pagecolor="#ffffff"
     bordercolor="#666666"
     borderopacity="1"
     objecttolerance="10"
     gridtolerance="10"
     guidetolerance="10"
     inkscape:pageopacity="0"
     inkscape:pageshadow="2"
     inkscape:window-width="640"
     inkscape:window-height="480"
     id="namedview5248"
     showgrid="false"
     inkscape:zoom="10.375"
     inkscape:cx="7.9903474"
     inkscape:cy="24.420598"
     inkscape:current-layer="Ebene_1" /><path
     style="fill:#000000;fill-opacity:1"
     d="M 32.001953 14.865234 C 31.949315 14.865234 31.89824 14.872476 31.845703 14.873047 C 31.436658 14.878829 31.030934 14.901964 30.630859 14.941406 C 30.392202 14.96413 30.157555 14.998898 29.921875 15.033203 C 29.71918 15.063473 29.51821 15.09609 29.318359 15.134766 C 29.035702 15.188236 28.755757 15.24664 28.478516 15.316406 C 28.404734 15.33536 28.333089 15.358813 28.259766 15.378906 C 25.383617 16.15117 22.822417 17.770107 20.949219 20.005859 C 19.629302 21.58976 18.605809 23.436735 18.011719 25.460938 C 16.494058 22.237548 13.246648 19.959427 9.4726562 19.958984 C 4.2749972 19.959545 0.000672 24.233244 0 29.431641 C -0.000933 34.630821 4.2735402 38.905578 9.4726562 38.90625 C 13.240534 38.905798 16.479828 36.633803 18 33.417969 C 19.514105 38.758839 23.98595 42.83344 29.544922 43.777344 C 29.618075 43.790262 29.692097 43.800697 29.765625 43.8125 C 30.084472 43.861623 30.403148 43.909349 30.728516 43.9375 C 31.056638 43.967538 31.390473 43.978839 31.724609 43.986328 C 31.817875 43.988082 31.908262 44 32.001953 44 C 32.009216 44 32.016177 43.998057 32.023438 43.998047 C 32.031992 43.998062 32.04027 44 32.048828 44 C 32.511812 44.000036 32.968213 43.972685 33.419922 43.929688 C 33.520571 43.919999 33.618715 43.902345 33.71875 43.890625 C 34.079751 43.848559 34.436721 43.796951 34.789062 43.728516 C 34.917743 43.703645 35.044434 43.674709 35.171875 43.646484 C 35.476644 43.578537 35.777027 43.501091 36.074219 43.414062 C 36.230862 43.36862 36.386609 43.321988 36.541016 43.271484 C 36.778633 43.192971 37.012124 43.106038 37.244141 43.015625 C 37.44162 42.939508 37.640786 42.86756 37.833984 42.783203 C 37.927706 42.741823 38.0167 42.691748 38.109375 42.648438 C 41.927782 40.883814 44.844028 37.52391 46.007812 33.412109 C 47.52879 36.627068 50.757768 38.905803 54.525391 38.90625 C 59.725516 38.907178 64.000784 34.631831 64 29.431641 C 63.999488 24.232461 59.724508 19.9582 54.525391 19.958984 C 50.761695 19.959941 47.534186 22.233857 46.011719 25.443359 C 45.59156 23.976292 44.935897 22.608219 44.085938 21.361328 C 44.048128 21.304662 44.011225 21.247515 43.972656 21.191406 C 43.860638 21.031945 43.743556 20.875876 43.625 20.720703 C 43.44661 20.481999 43.262491 20.248656 43.070312 20.021484 C 43.065841 20.016199 43.061119 20.011138 43.056641 20.005859 C 43.051009 19.999138 43.044706 19.993039 43.039062 19.986328 C 42.744198 19.640013 42.432609 19.309522 42.107422 18.992188 C 42.045483 18.931483 41.984911 18.870111 41.921875 18.810547 C 41.570109 18.479171 41.207241 18.160567 40.824219 17.865234 C 40.436082 17.565958 40.028817 17.290585 39.611328 17.03125 C 39.55793 16.998225 39.503068 16.967889 39.449219 16.935547 C 39.044558 16.691415 38.628165 16.465938 38.199219 16.261719 C 38.189763 16.257217 38.181342 16.250576 38.171875 16.246094 C 38.1674 16.243984 38.16268 16.24234 38.158203 16.240234 C 37.233748 15.803753 36.256897 15.466627 35.238281 15.234375 C 35.205787 15.226912 35.173193 15.220133 35.140625 15.212891 C 34.692077 15.113924 34.236612 15.036255 33.773438 14.980469 C 33.692524 14.970485 33.612506 14.957849 33.53125 14.949219 C 33.04322 14.898885 32.550207 14.865201 32.048828 14.865234 C 32.039615 14.865235 32.030693 14.867169 32.021484 14.867188 C 32.014888 14.867179 32.008551 14.865234 32.001953 14.865234 z M 9.4726562 25.519531 C 11.666288 25.519785 13.38443 27.237982 13.384766 29.431641 C 13.385151 31.625747 11.666849 33.345478 9.4726562 33.345703 C 7.2785772 33.345447 5.5603229 31.625747 5.5605469 29.431641 C 5.5608029 27.238094 7.2789143 25.519868 9.4726562 25.519531 z M 54.525391 25.519531 C 56.719359 25.519147 58.439229 27.237534 58.439453 29.431641 C 58.439965 31.626195 56.719919 33.346039 54.525391 33.345703 C 52.331312 33.345447 50.612945 31.625747 50.613281 29.431641 C 50.613529 27.238094 52.33176 25.519868 54.525391 25.519531 z M 24.291016 27.804688 L 27.71875 27.804688 L 27.71875 31.232422 L 24.291016 31.232422 L 24.291016 27.804688 z M 30.289062 27.804688 L 33.716797 27.804688 L 33.716797 31.232422 L 30.289062 31.232422 L 30.289062 27.804688 z M 36.287109 27.804688 L 39.714844 27.804688 L 39.714844 31.232422 L 36.287109 31.232422 L 36.287109 27.804688 z "
     id="path5246" /></svg>