<?xml version="1.0" encoding="UTF-8" standalone="no"?>
<!-- Generator: Adobe Illustrator 18.0.0, SVG Export Plug-In . SVG Version: 6.00 Build 0)  -->

<svg
   xmlns:dc="http://purl.org/dc/elements/1.1/"
   xmlns:cc="http://creativecommons.org/ns#"
   xmlns:rdf="http://www.w3.org/1999/02/22-rdf-syntax-ns#"
   xmlns:svg="http://www.w3.org/2000/svg"
   xmlns="http://www.w3.org/2000/svg"
   xmlns:sodipodi="http://sodipodi.sourceforge.net/DTD/sodipodi-0.dtd"
   xmlns:inkscape="http://www.inkscape.org/namespaces/inkscape"
   version="1.1"
   id="Ebene_1"
   x="0px"
   y="0px"
   viewBox="0 0 64 64"
   enable-background="new 0 0 64 64"
   xml:space="preserve"
   inkscape:version="0.91 r13725"
   sodipodi:docname="state-ok.svg"
   inkscape:export-filename="state-ok-256.png"
   inkscape:export-xdpi="360"
   inkscape:export-ydpi="360"><metadata
     id="metadata5809"><rdf:RDF><cc:Work
         rdf:about=""><dc:format>image/svg+xml</dc:format><dc:type
           rdf:resource="http://purl.org/dc/dcmitype/StillImage" /><dc:title></dc:title></cc:Work></rdf:RDF></metadata><defs
     id="defs5807" /><sodipodi:namedview
     pagecolor="#ffffff"
     bordercolor="#666666"
     borderopacity="1"
     objecttolerance="10"
     gridtolerance="10"
     guidetolerance="10"
     inkscape:pageopacity="0"
     inkscape:pageshadow="2"
     inkscape:window-width="640"
     inkscape:window-height="480"
     id="namedview5805"
     showgrid="false"
     inkscape:zoom="11.313709"
     inkscape:cx="12.151613"
     inkscape:cy="27.380513"
     inkscape:current-layer="Ebene_1" /><path
     style="color:#000000;text-indent:0;text-decoration:none;text-decoration-line:none;text-decoration-style:solid;text-decoration-color:#000000;text-transform:none;block-progression:tb;white-space:normal;isolation:auto;mix-blend-mode:normal;solid-color:#000000;fill:#000000;fill-opacity:1;color-rendering:auto;image-rendering:auto;shape-rendering:auto;enable-background:accumulate"
     d="M 32.048828 14.865234 C 25.381426 14.865906 19.782258 19.43101 18.072266 25.572266 C 16.578544 22.28783 13.291565 19.959432 9.4726562 19.958984 C 4.2749967 19.959545 0.0006724 24.233244 0 29.431641 C -0.0009323 34.630821 4.2735402 38.905578 9.4726562 38.90625 C 13.291677 38.905792 16.575309 36.576349 18.068359 33.291016 C 19.778463 39.43373 25.380529 44 32.048828 44 C 38.680372 44.000512 44.252196 39.484577 45.998047 33.394531 C 47.515412 36.619128 50.750633 38.905802 54.525391 38.90625 C 59.725516 38.907178 64.000784 34.631831 64 29.431641 C 63.999488 24.232461 59.724508 19.9582 54.525391 19.958984 C 50.750521 19.959943 47.512899 22.246106 45.996094 25.470703 C 44.249123 19.381665 38.680372 14.864786 32.048828 14.865234 z M 37.400391 21.720703 L 40.142578 24.462891 L 31.060547 37.144531 L 23.861328 31.660156 L 25.662109 28.917969 L 30.203125 32.517578 L 37.400391 21.720703 z M 9.4726562 25.519531 C 11.666287 25.519785 13.38443 27.237982 13.384766 29.431641 C 13.385151 31.625747 11.666848 33.345478 9.4726562 33.345703 C 7.2785772 33.345447 5.5603228 31.625747 5.5605469 29.431641 C 5.5608035 27.238094 7.2789134 25.519868 9.4726562 25.519531 z M 54.525391 25.519531 C 56.719359 25.519147 58.439229 27.237534 58.439453 29.431641 C 58.439965 31.626195 56.719919 33.346039 54.525391 33.345703 C 52.331312 33.345447 50.612945 31.625747 50.613281 29.431641 C 50.613529 27.238094 52.33176 25.519868 54.525391 25.519531 z "
     id="path4" /><path
     style="fill:#ffffff"
     inkscape:connector-curvature="0"
     id="path5801"
     d="m -45.8,52.7 c -0.1,0 -0.2,0 -0.3,0 l 0.6,0.5 0.7,-0.9 c -0.3,0.2 -0.7,0.3 -1,0.4 z" /><path
     style="fill:#ffffff"
     inkscape:connector-curvature="0"
     id="path5803"
     d="m -46.1,52.7 c 0.1,0 0.2,0 0.3,0 0.4,-0.1 0.7,-0.2 1,-0.5 l -0.7,0.9 -0.6,-0.4 z" /></svg>