<?xml version="1.0" encoding="UTF-8" standalone="no"?>
<!-- Generator: Adobe Illustrator 18.0.0, SVG Export Plug-In . SVG Version: 6.00 Build 0)  -->

<svg
   xmlns:dc="http://purl.org/dc/elements/1.1/"
   xmlns:cc="http://creativecommons.org/ns#"
   xmlns:rdf="http://www.w3.org/1999/02/22-rdf-syntax-ns#"
   xmlns:svg="http://www.w3.org/2000/svg"
   xmlns="http://www.w3.org/2000/svg"
   xmlns:sodipodi="http://sodipodi.sourceforge.net/DTD/sodipodi-0.dtd"
   xmlns:inkscape="http://www.inkscape.org/namespaces/inkscape"
   version="1.1"
   id="Ebene_1"
   x="0px"
   y="0px"
   viewBox="0 0 64 64"
   enable-background="new 0 0 64 64"
   xml:space="preserve"
   inkscape:version="0.91 r13725"
   sodipodi:docname="state-sync.svg"
   inkscape:export-filename="state-sync-256.png"
   inkscape:export-xdpi="360"
   inkscape:export-ydpi="360"><metadata
     id="metadata6911"><rdf:RDF><cc:Work
         rdf:about=""><dc:format>image/svg+xml</dc:format><dc:type
           rdf:resource="http://purl.org/dc/dcmitype/StillImage" /></cc:Work></rdf:RDF></metadata><defs
     id="defs6909" /><sodipodi:namedview
     pagecolor="#ffffff"
     bordercolor="#666666"
     borderopacity="1"
     objecttolerance="10"
     gridtolerance="10"
     guidetolerance="10"
     inkscape:pageopacity="0"
     inkscape:pageshadow="2"
     inkscape:window-width="640"
     inkscape:window-height="480"
     id="namedview6907"
     showgrid="false"
     inkscape:zoom="10.046875"
     inkscape:cx="5.9222395"
     inkscape:cy="32"
     inkscape:current-layer="Ebene_1" /><path
     style="color:#000000;text-indent:0;text-decoration:none;text-decoration-line:none;text-decoration-style:solid;text-decoration-color:#000000;text-transform:none;block-progression:tb;white-space:normal;isolation:auto;mix-blend-mode:normal;solid-color:#000000;fill:#000000;fill-opacity:1;color-rendering:auto;image-rendering:auto;shape-rendering:auto;enable-background:accumulate"
     d="M 32.048828 14.865234 C 25.381426 14.865906 19.782258 19.43101 18.072266 25.572266 C 16.578544 22.28783 13.291566 19.959432 9.4726562 19.958984 C 4.2749972 19.959545 0.000672 24.233244 0 29.431641 C -0.000933 34.630821 4.2735402 38.905578 9.4726562 38.90625 C 13.291678 38.905792 16.575309 36.576349 18.068359 33.291016 C 19.778463 39.43373 25.380529 44 32.048828 44 C 38.680372 44.000512 44.252196 39.484577 45.998047 33.394531 C 47.515412 36.619128 50.750633 38.905802 54.525391 38.90625 C 59.725516 38.907178 64.000784 34.631831 64 29.431641 C 63.999488 24.232461 59.724508 19.9582 54.525391 19.958984 C 50.750521 19.959943 47.512899 22.246106 45.996094 25.470703 C 44.249123 19.381665 38.680372 14.864786 32.048828 14.865234 z M 32.087891 20.863281 C 34.830009 20.863281 37.401165 22.148982 39.029297 24.376953 L 40.142578 22.919922 L 40.572266 27.890625 L 40.572266 28.318359 L 35.257812 29.261719 L 36.886719 27.119141 C 35.944116 25.233935 34.058541 24.033203 32.001953 24.033203 C 31.659188 24.033203 31.403312 24.033451 31.060547 24.119141 C 29.175341 24.461906 27.546858 25.74736 26.861328 27.546875 L 26.861328 27.804688 L 23.433594 28.404297 L 23.519531 27.976562 C 24.20506 24.463224 26.945893 21.634994 30.544922 21.035156 C 31.059069 20.949466 31.573744 20.863281 32.087891 20.863281 z M 9.4726562 25.519531 C 11.666288 25.519785 13.38443 27.237982 13.384766 29.431641 C 13.385151 31.625747 11.666849 33.345478 9.4726562 33.345703 C 7.2785772 33.345447 5.5603229 31.625747 5.5605469 29.431641 C 5.5608029 27.238094 7.2789143 25.519868 9.4726562 25.519531 z M 54.525391 25.519531 C 56.719359 25.519147 58.439229 27.237534 58.439453 29.431641 C 58.439965 31.626195 56.719919 33.346039 54.525391 33.345703 C 52.331312 33.345447 50.612945 31.625747 50.613281 29.431641 C 50.613529 27.238094 52.33176 25.519868 54.525391 25.519531 z M 28.660156 29.861328 L 27.033203 32.003906 C 27.975806 33.889112 29.859428 35.001953 31.916016 35.001953 C 32.258781 35.001953 32.51661 35.001706 32.859375 34.916016 C 34.744581 34.573252 36.287127 33.287796 36.972656 31.488281 L 37.058594 31.318359 L 40.486328 30.71875 L 40.486328 31.060547 C 40.143564 32.774371 39.371304 34.315948 38.085938 35.515625 C 36.80057 36.800992 35.258499 37.573252 33.458984 37.916016 C 32.944837 38.001706 32.430163 38.087891 31.916016 38.087891 C 29.173898 38.087891 26.604694 36.802189 24.976562 34.574219 L 23.861328 36.03125 L 23.433594 30.974609 L 23.433594 30.71875 L 26.517578 30.203125 L 28.660156 29.861328 z "
     id="path4" /></svg>